<svg width="14" height="14" viewBox="0 0 14 14" fill="none" xmlns="http://www.w3.org/2000/svg">
<path d="M7.37523 0.00988224C7.251 0.00332171 7.12592 0 7.00005 0C3.13406 0 5.43594e-05 3.13401 5.43594e-05 7C5.43594e-05 10.866 3.13406 14 7.00005 14C8.32693 14 9.56757 13.6308 10.6249 12.9896C6.93332 12.7946 4.00005 9.73959 4.00005 5.99946C4.00005 3.46034 5.35195 1.23697 7.37523 0.00988224Z" fill="#222222"/>
<path d="M11.6 6.2L11.6 6.2C11.4986 6.50412 11.4479 6.65618 11.3972 6.7225C11.1971 6.98431 10.8029 6.98431 10.6028 6.7225C10.5521 6.65618 10.5014 6.50412 10.4 6.2L10.4 6.2C10.3182 5.95468 10.2773 5.83201 10.2244 5.72099C10.0271 5.30672 9.69328 4.97291 9.27901 4.77555C9.16799 4.72266 9.04532 4.68177 8.8 4.6L8.8 4.6C8.49588 4.49863 8.34382 4.44794 8.2775 4.39724C8.01569 4.19712 8.01569 3.80288 8.2775 3.60276C8.34382 3.55206 8.49588 3.50137 8.8 3.4L8.8 3.4C9.04532 3.31822 9.16799 3.27734 9.27901 3.22445C9.69328 3.02709 10.0271 2.69329 10.2244 2.27901C10.2773 2.16799 10.3182 2.04532 10.4 1.8C10.5014 1.49588 10.5521 1.34382 10.6028 1.2775C10.8029 1.01569 11.1971 1.01569 11.3972 1.2775C11.4479 1.34382 11.4986 1.49588 11.6 1.8C11.6818 2.04532 11.7227 2.16799 11.7756 2.27901C11.9729 2.69329 12.3067 3.02709 12.721 3.22445C12.832 3.27734 12.9547 3.31823 13.2 3.4C13.5041 3.50137 13.6562 3.55206 13.7225 3.60276C13.9843 3.80288 13.9843 4.19712 13.7225 4.39724C13.6562 4.44794 13.5041 4.49863 13.2 4.6C12.9547 4.68177 12.832 4.72266 12.721 4.77555C12.3067 4.97291 11.9729 5.30672 11.7756 5.72099C11.7227 5.83201 11.6818 5.95468 11.6 6.2Z" fill="#222222"/>
</svg>
